<svg id="Capa_1" enable-background="new 0 0 512 512" height="512" viewBox="0 0 512 512" width="512" xmlns="http://www.w3.org/2000/svg" xmlns:xlink="http://www.w3.org/1999/xlink"><linearGradient id="lg1"><stop offset="0" stop-color="#ffc538"/><stop offset=".9222" stop-color="#f7e041"/></linearGradient><linearGradient id="SVGID_1_" gradientUnits="userSpaceOnUse" x1="146.356" x2="176.297" xlink:href="#lg1" y1="13.013" y2="176.023"/><linearGradient id="SVGID_2_" gradientTransform="matrix(.866 -.5 0 1.155 43.152 137.884)" gradientUnits="userSpaceOnUse" x1="367.972" x2="132.724" xlink:href="#lg1" y1="257.71" y2="121.89"/><linearGradient id="SVGID_3_" gradientUnits="userSpaceOnUse" x1="133.294" x2="59.967" y1="273.964" y2="273.964"><stop offset="0" stop-color="#e37a34"/><stop offset=".9847" stop-color="#f7e041"/></linearGradient><linearGradient id="lg2"><stop offset="0" stop-color="#c5baeb"/><stop offset=".5922" stop-color="#dfdaef"/><stop offset="1" stop-color="#f2edff"/></linearGradient><linearGradient id="SVGID_4_" gradientUnits="userSpaceOnUse" x1="104.51" x2="343.66" xlink:href="#lg2" y1="111.99" y2="-30.482"/><linearGradient id="SVGID_5_" gradientUnits="userSpaceOnUse" x1="107.382" x2="396.103" xlink:href="#lg2" y1="129.153" y2="-36.983"/><linearGradient id="lg3"><stop offset="0" stop-color="#ab2c37"/><stop offset=".6173" stop-color="#ff4f5e"/><stop offset="1" stop-color="#ff7a85"/></linearGradient><linearGradient id="SVGID_6_" gradientUnits="userSpaceOnUse" x1="201.251" x2="244.505" xlink:href="#lg3" y1="95.856" y2="216.378"/><linearGradient id="SVGID_7_" gradientTransform="matrix(.866 -.5 0 1.155 43.152 137.884)" gradientUnits="userSpaceOnUse" x1="455.704" x2="220.456" xlink:href="#lg3" y1="333.64" y2="197.819"/><linearGradient id="SVGID_8_" gradientUnits="userSpaceOnUse" x1="124.156" x2="208.401" y1="317.773" y2="317.773"><stop offset="0" stop-color="#ab2c37"/><stop offset="1" stop-color="#ff4f5e"/></linearGradient><linearGradient id="SVGID_9_" gradientUnits="userSpaceOnUse" x1="180.486" x2="419.636" xlink:href="#lg2" y1="155.8" y2="13.328"/><linearGradient id="SVGID_10_" gradientUnits="userSpaceOnUse" x1="183.358" x2="472.079" xlink:href="#lg2" y1="172.962" y2="6.827"/><linearGradient id="lg4"><stop offset=".0028" stop-color="#80e37b"/><stop offset=".7597" stop-color="#a6eba2"/><stop offset="1" stop-color="#b3eeb0"/></linearGradient><linearGradient id="SVGID_11_" gradientUnits="userSpaceOnUse" x1="335.083" x2="335.083" xlink:href="#lg4" y1="85.277" y2="365.108"/><linearGradient id="SVGID_12_" gradientTransform="matrix(.866 -.5 0 1.155 43.152 137.884)" gradientUnits="userSpaceOnUse" x1="543.425" x2="308.176" xlink:href="#lg4" y1="409.564" y2="273.743"/><linearGradient id="SVGID_13_" gradientUnits="userSpaceOnUse" x1="200.122" x2="284.367" y1="361.583" y2="361.583"><stop offset="0" stop-color="#236568"/><stop offset=".2824" stop-color="#24696c"/><stop offset=".572" stop-color="#297578"/><stop offset=".8296" stop-color="#2f878a"/></linearGradient><linearGradient id="SVGID_14_" gradientUnits="userSpaceOnUse" x1="256.452" x2="495.602" xlink:href="#lg2" y1="199.609" y2="57.137"/><linearGradient id="SVGID_15_" gradientUnits="userSpaceOnUse" x1="259.324" x2="548.045" xlink:href="#lg2" y1="216.772" y2="50.636"/><g><g><path d="m255.151 14.476c-.002-3.457-.928-5.714-2.603-6.672-1.676-.958-6.195-2.664-9.194-.922l-186.037 104.129v275.162l187.801-108.475c4.513-2.602 10.155-12.376 10.153-17.586l53.694-219.717-7.345-3.343-46.449 17.16z" fill="url(#SVGID_1_)"/><path d="m73.806 118.285c-19.327 12.855-.405 42.286 19.697 30.68l9.437-5.449 177.133-102.419 2.875-1.664c2.99-1.736 5.408-2.08 7.083-1.134l-36.425-21.007-.017.009c-1.68-1.158-4.195-.891-7.357.945l-170.899 99.09c-.524.304-1.033.62-1.527.949z" fill="#f2edff"/><path d="m311.771 47.159c-.003-6.914-3.704-9.029-9.703-5.545l-169.643 98.435v268.346l169.314-98.013c4.512-2.602 10.155-12.376 10.153-17.586z" fill="url(#SVGID_2_)"/><path d="m309.493 40.717.013-.007-.125-.073c.037.026.074.053.112.08z" fill="#e37a34"/><path d="m132.425 140.048s-25.498 7.391-51.214 3.342c-25.716-4.05-33.017-19.844-33.017-19.844v268.541c-.019.598-.019 1.194 0 1.791v.198s.006.003.006.003c.348 8.952 4.942 17.759 13.806 22.877 17.171 9.914 38.331 9.899 55.488-.04l13.974-8.095c.613-.268.956-.427.956-.427v-268.346z" fill="url(#SVGID_3_)"/><g fill="#e37a34"><path d="m252.672 7.878-.107-.062c.034.019.063.048.096.068z"/><path d="m296.627 33.225c-.025-.015-.051-.03-.076-.044l-.091-.053-.012.007c-1.67-.865-4.039-.506-6.96 1.19l-179.46 104.004c-11.297 6.522-25.215 6.522-36.512 0l-6.72-3.88c-8.119-4.688-8.564-16.004-1.357-21.435l177.134-102.419 2.875-1.664c2.99-1.736 5.408-2.08 7.083-1.134l-12.289-7.109-.017.009c-1.68-1.158-4.195-.891-7.357.945l-170.899 99.09c-18.42 10.673-18.399 37.278.038 47.923 17.171 9.914 38.331 9.899 55.488-.04l181.698-105.333v-.001l2.875-1.668c2.884-1.674 5.23-2.042 6.896-1.218z"/></g><path d="m322.857 57.321.013-.007-.125-.073c.038.026.075.053.112.08z" fill="#e37a34"/><g><path d="m290.173 38.38-.107-.062c.034.019.063.048.096.068z" fill="#e37a34"/></g><g><path d="m85.261 118.261c-1.965 1.135-1.965 2.533 0 3.667 1.316.76 4.607.76 5.923 0l171.882-99.199-6.137-3.544z" fill="url(#SVGID_4_)"/><path d="m102.826 128.384c-1.965 1.135-1.965 2.533 0 3.667 1.317.76 4.607.76 5.923 0l171.882-99.199-6.137-3.543z" fill="url(#SVGID_5_)"/></g></g><g><path d="m331.127 58.285c-.002-3.457-.928-5.714-2.603-6.672-1.676-.958-6.195-2.664-9.194-.922l-186.036 104.13v275.162l187.801-108.475c4.513-2.602 10.155-12.376 10.153-17.586l53.694-219.717-7.345-3.343-46.449 17.16z" fill="url(#SVGID_6_)"/><path d="m149.782 162.094c-19.327 12.855-.405 42.286 19.697 30.68l9.437-5.449 177.134-102.418 2.875-1.664c2.99-1.736 5.408-2.08 7.083-1.134l-36.425-21.007-.017.009c-1.68-1.158-4.195-.891-7.357.945l-170.899 99.091c-.525.302-1.034.619-1.528.947z" fill="#f2edff"/><path d="m387.747 90.968c-.003-6.914-3.704-9.029-9.703-5.545l-169.643 98.435v268.346l169.314-98.013c4.512-2.602 10.155-12.376 10.153-17.586z" fill="url(#SVGID_7_)"/><path d="m385.469 84.526.013-.007-.125-.073c.038.026.075.054.112.08z" fill="#e37a34"/><path d="m208.401 183.858s-25.498 7.391-51.214 3.342c-25.716-4.05-33.017-19.844-33.017-19.844v268.541c-.019.598-.019 1.194 0 1.791v.198s.006.003.006.003c.348 8.952 4.942 17.759 13.806 22.877 17.171 9.914 38.331 9.899 55.488-.04l13.974-8.095c.613-.268.956-.427.956-.427v-268.346z" fill="url(#SVGID_8_)"/><g><path d="m328.648 51.688-.107-.062c.034.019.063.048.096.068z" fill="#e37a34"/><path d="m372.604 77.034c-.025-.015-.051-.03-.076-.044l-.091-.053-.012.007c-1.67-.865-4.039-.506-6.96 1.19l-179.46 104.004c-11.297 6.522-25.215 6.522-36.512 0l-6.72-3.88c-8.119-4.688-8.564-16.004-1.357-21.435l177.133-102.419 2.875-1.664c2.99-1.736 5.408-2.08 7.083-1.134l-12.289-7.109-.017.009c-1.68-1.158-4.195-.891-7.357.945l-170.899 99.091c-18.42 10.673-18.399 37.278.038 47.923 17.171 9.914 38.331 9.899 55.488-.04l181.699-105.334v-.001l2.875-1.668c2.884-1.674 5.23-2.042 6.896-1.218z" fill="#ff959d"/></g><path d="m398.833 101.13.013-.007-.125-.073c.038.026.075.054.112.08z" fill="#e37a34"/><g><path d="m366.149 82.19-.107-.062c.034.019.063.048.096.068z" fill="#e37a34"/></g><g><path d="m161.237 162.07c-1.965 1.135-1.965 2.533 0 3.667 1.316.76 4.607.76 5.923 0l171.882-99.199-6.137-3.544z" fill="url(#SVGID_9_)"/><path d="m178.803 172.193c-1.965 1.135-1.965 2.533 0 3.667 1.317.76 4.607.76 5.923 0l171.882-99.199-6.137-3.543z" fill="url(#SVGID_10_)"/></g></g><g><path d="m407.093 102.095c-.002-3.457-.928-5.714-2.603-6.672s-6.195-2.664-9.194-.922l-186.037 104.129v275.162l187.801-108.474c4.513-2.602 10.155-12.376 10.153-17.586l53.694-219.717-7.345-3.343-46.449 17.16z" fill="url(#SVGID_11_)"/><path d="m225.748 205.904c-19.327 12.855-.405 42.286 19.697 30.68l9.437-5.449 177.134-102.419 2.875-1.664c2.99-1.736 5.408-2.08 7.083-1.134l-36.425-21.007-.017.009c-1.68-1.158-4.195-.891-7.357.945l-170.899 99.091c-.525.303-1.034.619-1.528.948z" fill="#f2edff"/><path d="m463.713 134.778c-.003-6.914-3.704-9.029-9.703-5.545l-169.643 98.435v268.346l169.314-98.014c4.512-2.602 10.155-12.376 10.153-17.586z" fill="url(#SVGID_12_)"/><path d="m461.435 128.336.013-.007-.125-.073c.038.026.075.053.112.08z" fill="#e37a34"/><path d="m284.367 227.667s-25.498 7.391-51.214 3.342c-25.716-4.05-33.017-19.844-33.017-19.844v268.541c-.019.598-.019 1.194 0 1.791v.198s.006.003.006.003c.348 8.952 4.942 17.759 13.806 22.877 17.171 9.914 38.331 9.899 55.488-.04l13.974-8.095c.613-.268.956-.427.956-.427v-268.346z" fill="url(#SVGID_13_)"/><g><path d="m404.614 95.497-.107-.062c.034.019.063.048.096.068z" fill="#e37a34"/><path d="m448.57 120.844c-.025-.015-.051-.03-.076-.044l-.091-.053-.012.007c-1.67-.865-4.039-.506-6.96 1.19l-179.461 104.003c-11.297 6.522-25.215 6.522-36.512 0l-6.72-3.88c-8.119-4.688-8.564-16.004-1.357-21.435l177.134-102.418 2.875-1.664c2.99-1.736 5.408-2.08 7.083-1.134l-12.289-7.109-.017.009c-1.68-1.158-4.195-.891-7.357.945l-170.899 99.091c-18.42 10.673-18.399 37.278.038 47.923 17.171 9.914 38.331 9.899 55.488-.04l181.699-105.333v-.002l2.875-1.668c2.884-1.674 5.23-2.042 6.896-1.218z" fill="#ccf4ca"/></g><g><path d="m442.115 126-.107-.062c.034.019.063.048.096.068z" fill="#e37a34"/></g><g><path d="m237.203 205.88c-1.965 1.135-1.965 2.533 0 3.667 1.316.76 4.607.76 5.923 0l171.882-99.199-6.137-3.544z" fill="url(#SVGID_14_)"/><path d="m254.768 216.003c-1.965 1.135-1.965 2.533 0 3.667 1.317.76 4.607.76 5.923 0l171.882-99.199-6.137-3.543z" fill="url(#SVGID_15_)"/></g></g></g></svg>