<svg height="100%" viewBox="0 0 128 128" width="100%" xmlns="http://www.w3.org/2000/svg"><g id="Book,-marker,-page-icon" fill="none" fill-rule="evenodd"><path id="Shape" d="m51 104v10.864l-4.3598156-3.632221-.1050487-.076621c-.3623515-.229864-.8381874-.204323-1.1753201.076621l-4.3598156 3.632221v-10.864zm51-8c.512836 0 .935507.3860402.993272.8833789l.006728.1166211v16c0 .512836-.38604.935507-.883379.993272l-.116621.006728h-49v-10h37l.1166211-.006728c.4973387-.057765.8833789-.480436.8833789-.993272s-.3860402-.935507-.8833789-.993272l-.1166211-.006728h-52l-.1166211.006728c-.4973387.057765-.8833789.480436-.8833789.993272s.3860402.935507.8833789.993272l.1166211.006728h1v10h-5c-4.7930427 0-8.7109826-3.74676-8.9847219-8.471182l-.011441-.263456-.0038371-.265362c0-4.881803 3.8868137-8.8557914 8.7346377-8.9961629l.2653623-.0038371zm-69.9999924-85.7763324v83.9580716c-2.3351568.4304831-4.4128914 1.6064824-5.9843448 3.3231295-.3671683.4010927-.7069889.8321036-1.0157876 1.2913292l.0001248-80.7961979c0-.1184126.0205804-.2320153.0583583-.3374279l.0433852-.1025573.0192565-.0360148.0291723-.169498c.6564623-3.5565735 3.3878824-6.3437762 6.8498353-7.1308344zm69.9999924-.2236676c.512836 0 .935507.3860402.993272.8833789l.006728.1166211.001011 83.1711336c-.250445-.0886476-.516166-.1449845-.792164-.1639734l-.208847-.0071602-68.0001248.003v-84.003zm-16 15h-38c-1.6568542 0-3 1.3431458-3 3v12c0 1.6568542 1.3431458 3 3 3h38c1.6568542 0 3-1.3431458 3-3v-12c0-1.6568542-1.3431458-3-3-3zm0 2c.5522847 0 1 .4477153 1 1v12c0 .5522847-.4477153 1-1 1h-38c-.5522847 0-1-.4477153-1-1v-12c0-.5522847.4477153-1 1-1z" fill="rgb(0,0,0)" fill-rule="nonzero"/></g></svg>