<?xml version="1.0" encoding="iso-8859-1"?>
<!-- Generator: Adobe Illustrator 19.0.0, SVG Export Plug-In . SVG Version: 6.00 Build 0)  -->
<svg xmlns="http://www.w3.org/2000/svg" xmlns:xlink="http://www.w3.org/1999/xlink" version="1.1" id="Capa_1" x="0px" y="0px" viewBox="0 0 512 512" style="enable-background:new 0 0 512 512;" xml:space="preserve">
<path style="fill:#DC5371;" d="M443.254,512H68.746c-11.939,0-21.617-9.678-21.617-21.617V21.618C47.129,9.679,56.807,0,68.746,0  h374.507c11.939,0,21.617,9.679,21.617,21.618v468.765C464.871,502.322,455.193,512,443.254,512z"/>
<rect x="75.18" style="opacity:0.15;enable-background:new    ;" width="28.704" height="512"/>
<path style="fill:#F6D83E;" d="M407.302,485.462H161.449c-17.11,0-31.031-13.92-31.031-31.031V57.569  c0-17.111,13.921-31.031,31.031-31.031h245.853c17.11,0,31.031,13.92,31.031,31.031v396.862  C438.333,471.542,424.412,485.462,407.302,485.462z M161.449,41.538c-8.84,0-16.031,7.191-16.031,16.031v396.862  c0,8.84,7.191,16.031,16.031,16.031h245.853c8.84,0,16.031-7.191,16.031-16.031V57.569c0-8.84-7.191-16.031-16.031-16.031  C407.302,41.538,161.449,41.538,161.449,41.538z"/>
<polygon style="fill:#F2DFA6;" points="279.951,132.503 241.054,108.002 202.156,132.503 202.156,0 279.951,0 "/>
<g>
	<path style="fill:#FFFFFF;" d="M362.106,372.744H206.645c-6.09,0-11.027-4.937-11.027-11.027v-27.11   c0-6.09,4.937-11.028,11.027-11.028h155.461c6.09,0,11.027,4.937,11.027,11.028v27.11   C373.133,367.807,368.196,372.744,362.106,372.744z"/>
	<path style="fill:#FFFFFF;" d="M337.647,411.329H231.105c-4.143,0-7.5-3.358-7.5-7.5s3.357-7.5,7.5-7.5h106.542   c4.143,0,7.5,3.358,7.5,7.5S341.789,411.329,337.647,411.329z"/>
</g>
<path style="opacity:0.1;enable-background:new    ;" d="M443.254,0h-33.922c11.939,0,21.617,9.679,21.617,21.617v468.765  c0,11.939-9.678,21.617-21.617,21.617h33.922c11.939,0,21.617-9.678,21.617-21.617V21.617C464.871,9.679,455.193,0,443.254,0z"/>
<g>
</g>
<g>
</g>
<g>
</g>
<g>
</g>
<g>
</g>
<g>
</g>
<g>
</g>
<g>
</g>
<g>
</g>
<g>
</g>
<g>
</g>
<g>
</g>
<g>
</g>
<g>
</g>
<g>
</g>
</svg>
